# xmcd
#
# Track frame offsets:
#	150
#	9945
#	25467
#	43346
#	81463
#	94116
#	115751
#	135311
#	160156
#	176436
#
# Disc length: 2732 seconds
#
# Revision: 0
# Processed by: cddbd v1.5.1PL0 Copyright (c) Steve Scherf et al.
# Submitted via: EasyCDDAExtractor 8.0.2.1
#
DISCID=760aaa0a
DTITLE=Judas Priest - KB Hallen Copenhagen 10-05-88 Disc 1
DYEAR=1988
DGENRE=Metal
TTITLE0=Intro - The Hellion
TTITLE1=Electric Eye
TTITLE2=Metal Gods
TTITLE3=Sinner
TTITLE4=Breaking The Law
TTITLE5=Come And Get It
TTITLE6=I'm A Rocker
TTITLE7=The Sentinel
TTITLE8=The Ripper
TTITLE9=Beyond The Realms Of Death
EXTD=
EXTT0=
EXTT1=
EXTT2=
EXTT3=
EXTT4=
EXTT5=
EXTT6=
EXTT7=
EXTT8=
EXTT9=
PLAYORDER=
